<svg aria-hidden="true" style="position: absolute; width: 0; height: 0; overflow: hidden;" version="1.1" xmlns="http://www.w3.org/2000/svg" xmlns:xlink="http://www.w3.org/1999/xlink">
<defs>
<symbol id="icon-hourglass" viewBox="0 0 32 32">
<path fill="none" stroke="#fafafa" stroke-linejoin="round" stroke-linecap="butt" stroke-miterlimit="4" stroke-width="2.6667" d="M24.213 2.667c0.613 0 1.12 0.493 1.12 1.107 0 3.56-1.413 6.96-3.933 9.48l-1.627 1.627c-0.16 0.16-0.24 0.24-0.293 0.32-0.36 0.467-0.36 1.12 0 1.587 0.053 0.080 0.133 0.16 0.293 0.32l1.627 1.627c2.52 2.52 3.933 5.92 3.933 9.48 0 0.613-0.507 1.12-1.12 1.12h-16.44c-0.613 0-1.107-0.507-1.107-1.12 0-3.56 1.4-6.96 3.92-9.48l1.627-1.627c0.16-0.16 0.24-0.24 0.293-0.32 0.36-0.467 0.36-1.12 0-1.587-0.053-0.080-0.133-0.16-0.293-0.32l-1.627-1.627c-2.52-2.52-3.92-5.92-3.92-9.48 0-0.613 0.493-1.107 1.107-1.107h16.44z"></path>
</symbol>
<symbol id="icon-brush" viewBox="0 0 32 32">
<path fill="none" stroke="#fafafa"  stroke-linejoin="round" stroke-linecap="round" stroke-miterlimit="4" stroke-width="2.6667" d="M12 14.96l5.027 5.040"></path>
<path fill="none" stroke="#fafafa"  stroke-linejoin="round" stroke-linecap="butt" stroke-miterlimit="4" stroke-width="2.6667" d="M2.667 29.333c1.36-2.667-0.467-6.147 1.36-7.973s4.773-1.827 6.6 0c1.827 1.827 1.827 4.773 0 6.6s-5.293 1.373-7.96 1.373zM23.92 3.92c1.16-1.080 2.96-1.040 4.080 0.080 1.107 1.107 1.147 2.907 0.067 4.067l-12.173 13.16c-0.64 0.68-0.947 1.013-1.28 1.213-0.813 0.48-1.8 0.493-2.627 0.053-0.347-0.187-0.667-0.507-1.32-1.16-0.667-0.667-0.987-0.987-1.173-1.333-0.44-0.827-0.427-1.813 0.053-2.627 0.2-0.333 0.533-0.64 1.213-1.28l13.16-12.173z"></path>
</symbol>
<symbol id="icon-message-chat-circle" viewBox="0 0 32 32">
<path fill="none" stroke="#fafafa"  stroke-linejoin="round" stroke-linecap="round" stroke-miterlimit="4" stroke-width="2.6667" d="M17.093 23.867c0.533 0.080 1.080 0.133 1.64 0.133 1.333 0 2.6-0.253 3.787-0.693 0.253-0.093 0.373-0.133 0.48-0.16 0.093-0.013 0.16-0.027 0.267-0.027 0.093 0 0.213 0.013 0.427 0.053l4.253 0.613c0.467 0.067 0.707 0.107 0.88 0.027 0.147-0.053 0.267-0.173 0.333-0.333 0.080-0.173 0.053-0.4 0-0.88l-0.547-4.36c-0.027-0.213-0.040-0.32-0.027-0.413 0-0.093 0-0.16 0.027-0.253 0.027-0.107 0.067-0.227 0.16-0.467 0.453-1.173 0.693-2.453 0.693-3.773 0-5.893-4.8-10.667-10.733-10.667s-10.733 4.773-10.733 10.667c0 0.547 0.040 1.093 0.12 1.627M17.333 22c0-4.053-3.213-7.333-7.16-7.333-3.96 0-7.16 3.28-7.16 7.333 0 0.813 0.133 1.587 0.36 2.32 0.107 0.307 0.16 0.467 0.173 0.573s0.027 0.173 0.013 0.28c0 0.107-0.027 0.227-0.080 0.467l-0.813 3.693 3.987-0.547c0.213-0.040 0.32-0.053 0.427-0.053 0.093 0 0.147 0.013 0.253 0.027 0.093 0.027 0.227 0.067 0.507 0.173 0.733 0.253 1.507 0.4 2.333 0.4 3.947 0 7.16-3.293 7.16-7.333z"></path>
</symbol>
<symbol id="icon-user" viewBox="0 0 32 32">
<path fill="none" stroke="#fafafa"  stroke-linejoin="round" stroke-linecap="round" stroke-miterlimit="4" stroke-width="2.6667" d="M5.333 28c0-1.867 0-2.8 0.227-3.56 0.52-1.693 1.853-3.027 3.547-3.547 0.76-0.227 1.693-0.227 3.56-0.227h6.667c1.853 0 2.787 0 3.547 0.227 1.693 0.52 3.027 1.853 3.547 3.547 0.24 0.76 0.24 1.693 0.24 3.56"></path>
<path fill="none" stroke="#fafafa"  stroke-linejoin="round" stroke-linecap="butt" stroke-miterlimit="4" stroke-width="2.6667" d="M16 16c-3.32 0-6-2.693-6-6 0-3.32 2.68-6 6-6 3.307 0 6 2.68 6 6 0 3.307-2.693 6-6 6z"></path>
</symbol>
<symbol id="icon-arrow-right" viewBox="0 0 32 32">
<path fill="none" stroke="#fafafa"  stroke-linejoin="round" stroke-linecap="round" stroke-miterlimit="4" stroke-width="0.9412" d="M10.979 16h10.038"></path>
<path fill="none" stroke="#fafafa" stroke-linejoin="round" stroke-linecap="round" stroke-miterlimit="4" stroke-width="0.9412" d="M17.252 12.235l3.765 3.765-3.765 3.765"></path>
<path fill="none" stroke="#fafafa"  stroke-linejoin="miter" stroke-linecap="butt" stroke-miterlimit="4" stroke-width="0.4706" d="M16 0.235c8.707 0 15.765 7.058 15.765 15.765s-7.058 15.765-15.765 15.765c-8.707 0-15.765-7.058-15.765-15.765s7.058-15.765 15.765-15.765z"></path>
</symbol>
<symbol id="icon-arrow-left" viewBox="0 0 32 32">
<path fill="none" stroke="#3b3b3b"  stroke-linejoin="round" stroke-linecap="round" stroke-miterlimit="4" stroke-width="0.9275" d="M20.712 15.768h-9.892"></path>
<path fill="none" stroke="#3b3b3b"  stroke-linejoin="round" stroke-linecap="round" stroke-miterlimit="4" stroke-width="0.9275" d="M14.53 19.478l-3.71-3.71 3.71-3.71"></path>
<path fill="none" stroke="#fafafa"  stroke-linejoin="miter" stroke-linecap="butt" stroke-miterlimit="4" stroke-width="0.4638" d="M16.232 31.768c-8.58 0-15.536-6.956-15.536-15.536s6.956-15.536 15.536-15.536c8.58 0 15.536 6.956 15.536 15.536s-6.956 15.536-15.536 15.536z"></path>
</symbol>
<symbol id="icon-Arrow-up" viewBox="0 0 32 32">
<path fill="#fafafa" d="M19.269 18.438l-3.81-3.81 0.541-0.533 0.533 0.533-3.81 3.81-1.074-1.074 4.35-4.35 4.343 4.35-1.074 1.074z"></path>
<path fill="none" stroke="#fafafa"  stroke-linejoin="miter" stroke-linecap="butt" stroke-miterlimit="4" stroke-width="0.7619" d="M16 30.857c8.626 0 15.619-6.993 15.619-15.619s-6.993-15.619-15.619-15.619c-8.626 0-15.619 6.993-15.619 15.619s6.993 15.619 15.619 15.619z"></path>
</symbol>
<symbol id="icon-Arrow-down" viewBox="0 0 32 32">
<path fill="#fafafa"  d="M19.269 13.554l-3.81 3.81 0.541 0.541 0.533-0.541-3.81-3.81-1.074 1.074 4.35 4.35 4.343-4.35-1.074-1.074z"></path>
<path fill="none" stroke="#fafafa"  stroke-linejoin="miter" stroke-linecap="butt" stroke-miterlimit="4" stroke-width="0.7619" d="M16 0.381c8.626 0 15.619 6.993 15.619 15.619s-6.993 15.619-15.619 15.619c-8.626 0-15.619-6.993-15.619-15.619s6.993-15.619 15.619-15.619z"></path>
</symbol>
<symbol id="icon-jefferson" viewBox="0 0 141 32">
<path fill="#FAFAFA" style="fill: var(--color1, #FAFAFA)" d="M133.406 15.158l0.236-4.952-4.312 2.695-1.331-2.223 4.564-2.257-4.564-2.24 1.331-2.257 4.312 2.695-0.236-4.935h2.644l-0.236 4.935 4.312-2.695 1.347 2.257-4.581 2.24 4.581 2.257-1.347 2.223-4.312-2.695 0.236 4.952h-2.644z"></path>
<path fill="#FAFAFA" style="fill: var(--color1, #FAFAFA)" d="M112.977 14.4v10.863h-3.503v-18.307h3.402v3.015h0.253c0.404-0.994 1.061-1.785 1.937-2.358 0.876-0.589 2.004-0.876 3.385-0.876 1.229 0 2.307 0.253 3.234 0.775s1.651 1.28 2.156 2.307c0.522 1.027 0.792 2.307 0.792 3.823v11.621h-3.52v-11.2c0-1.331-0.354-2.358-1.044-3.116s-1.634-1.145-2.829-1.145c-0.808 0-1.549 0.185-2.189 0.556s-1.145 0.876-1.516 1.566c-0.371 0.674-0.556 1.499-0.556 2.476z"></path>
<path fill="#FAFAFA" style="fill: var(--color1, #FAFAFA)" d="M99.352 25.263c-1.684 0-3.166-0.387-4.446-1.162-1.246-0.775-2.24-1.853-2.931-3.234-0.691-1.398-1.027-3.015-1.027-4.851 0-1.869 0.337-3.486 1.027-4.884s1.684-2.476 2.931-3.251c1.28-0.775 2.762-1.145 4.446-1.145 1.701 0 3.183 0.371 4.446 1.145 1.246 0.775 2.24 1.853 2.931 3.251 0.707 1.398 1.061 3.015 1.061 4.884 0 1.836-0.354 3.453-1.061 4.851-0.691 1.381-1.684 2.459-2.931 3.234-1.263 0.775-2.745 1.162-4.446 1.162zM99.352 22.316c1.112 0 2.021-0.286 2.745-0.859s1.246-1.347 1.6-2.291c0.354-0.977 0.539-2.021 0.539-3.149 0-1.162-0.185-2.206-0.539-3.183-0.354-0.96-0.876-1.718-1.6-2.307-0.724-0.573-1.634-0.859-2.745-0.859-1.095 0-2.004 0.286-2.728 0.859-0.707 0.589-1.246 1.347-1.6 2.307-0.354 0.977-0.539 2.021-0.539 3.183 0 1.128 0.185 2.173 0.539 3.149 0.354 0.943 0.893 1.718 1.6 2.291 0.724 0.573 1.634 0.859 2.728 0.859z"></path>
<path fill="#FAFAFA" style="fill: var(--color1, #FAFAFA)" d="M88.893 11.352l-3.301 0.539c-0.202-0.589-0.606-1.145-1.179-1.651s-1.415-0.758-2.56-0.758c-1.011 0-1.869 0.236-2.56 0.674s-1.027 1.011-1.027 1.684c0 0.606 0.236 1.095 0.691 1.465 0.472 0.371 1.213 0.674 2.223 0.893l2.981 0.64c1.701 0.387 2.981 0.977 3.823 1.768 0.842 0.808 1.28 1.836 1.28 3.082 0 1.078-0.337 2.038-0.977 2.88s-1.533 1.499-2.695 1.987c-1.145 0.472-2.459 0.707-3.958 0.707-2.105 0-3.806-0.438-5.12-1.314-1.314-0.859-2.122-2.072-2.408-3.655l3.486-0.505c0.219 0.876 0.674 1.533 1.347 1.987 0.691 0.455 1.583 0.674 2.678 0.674 1.179 0 2.122-0.236 2.829-0.724 0.724-0.488 1.078-1.061 1.078-1.752 0-1.128-0.876-1.903-2.627-2.291l-3.149-0.674c-1.752-0.387-3.048-0.994-3.874-1.819s-1.246-1.869-1.246-3.133c0-1.061 0.303-1.987 0.926-2.796s1.465-1.415 2.543-1.853c1.095-0.455 2.341-0.674 3.722-0.674 2.038 0 3.621 0.421 4.766 1.263 1.162 0.842 1.92 1.954 2.307 3.352z"></path>
<path fill="#FAFAFA" style="fill: var(--color1, #FAFAFA)" d="M64 25.263v-18.274h3.537v2.931h0.202c0.337-0.994 0.96-1.752 1.819-2.324 0.876-0.573 1.869-0.859 2.981-0.859 0.219 0 0.488 0 0.792 0.017 0.32 0.017 0.573 0.034 0.775 0.051v3.402c-0.152-0.034-0.421-0.084-0.808-0.135-0.371-0.034-0.741-0.067-1.128-0.067-0.876 0-1.651 0.185-2.341 0.539-0.674 0.354-1.213 0.842-1.6 1.465-0.387 0.606-0.573 1.314-0.573 2.122v11.133h-3.655z"></path>
<path fill="#FAFAFA" style="fill: var(--color1, #FAFAFA)" d="M54.333 25.263c-1.819 0-3.385-0.387-4.716-1.145-1.347-0.758-2.358-1.836-3.082-3.217-0.707-1.381-1.061-2.998-1.061-4.851 0-1.836 0.337-3.469 1.044-4.867s1.701-2.493 2.981-3.267c1.28-0.792 2.796-1.179 4.514-1.179 1.061 0 2.088 0.152 3.065 0.488 0.994 0.337 1.886 0.859 2.661 1.566 0.792 0.724 1.415 1.651 1.869 2.796 0.472 1.145 0.707 2.526 0.707 4.143v1.246h-14.804v-2.611h12.935l-1.684 0.859c0-1.095-0.185-2.072-0.539-2.914s-0.876-1.499-1.583-1.971c-0.707-0.488-1.583-0.724-2.627-0.724s-1.937 0.236-2.678 0.724c-0.724 0.472-1.28 1.112-1.667 1.903-0.404 0.792-0.589 1.667-0.589 2.594v1.785c0 1.229 0.219 2.274 0.657 3.133 0.455 0.859 1.061 1.499 1.853 1.954 0.808 0.455 1.735 0.674 2.779 0.674 0.691 0 1.314-0.101 1.869-0.286 0.556-0.202 1.044-0.488 1.465-0.876 0.404-0.371 0.724-0.859 0.926-1.415l3.436 0.623c-0.286 0.96-0.775 1.802-1.465 2.526-0.707 0.724-1.583 1.297-2.644 1.701s-2.257 0.606-3.621 0.606z"></path>
<path fill="#FAFAFA" style="fill: var(--color1, #FAFAFA)" d="M46.198 7.158v2.829h-10.829v-2.829h10.829zM38.316 25.263v-20.211c0-1.128 0.269-2.072 0.792-2.813 0.539-0.758 1.229-1.314 2.088-1.684 0.876-0.371 1.819-0.556 2.813-0.556 0.758 0 1.415 0.051 1.954 0.168s0.943 0.219 1.196 0.303l-0.909 2.863c-0.168-0.067-0.387-0.118-0.657-0.185s-0.606-0.101-1.011-0.101c-0.893 0-1.549 0.219-1.954 0.657-0.404 0.421-0.606 1.027-0.606 1.836v19.722h-3.705z"></path>
<path fill="#FAFAFA" style="fill: var(--color1, #FAFAFA)" d="M36.093 7.158v2.829h-10.829v-2.829h10.829zM28.211 25.263v-20.211c0-1.128 0.269-2.072 0.792-2.813 0.539-0.758 1.229-1.314 2.088-1.684 0.876-0.371 1.819-0.556 2.813-0.556 0.758 0 1.415 0.051 1.954 0.168s0.943 0.219 1.196 0.303l-0.909 2.863c-0.168-0.067-0.387-0.118-0.657-0.185s-0.606-0.101-1.011-0.101c-0.893 0-1.549 0.219-1.954 0.657-0.404 0.421-0.606 1.027-0.606 1.836v19.722h-3.705z"></path>
<path fill="#FAFAFA" style="fill: var(--color1, #FAFAFA)" d="M17.28 25.263c-1.819 0-3.385-0.387-4.716-1.145-1.347-0.758-2.358-1.836-3.082-3.217-0.707-1.381-1.061-2.998-1.061-4.851 0-1.836 0.337-3.469 1.044-4.867s1.701-2.493 2.981-3.267c1.28-0.792 2.796-1.179 4.514-1.179 1.061 0 2.088 0.152 3.065 0.488 0.994 0.337 1.886 0.859 2.661 1.566 0.792 0.724 1.415 1.651 1.869 2.796 0.472 1.145 0.707 2.526 0.707 4.143v1.246h-14.804v-2.611h12.935l-1.684 0.859c0-1.095-0.185-2.072-0.539-2.914s-0.876-1.499-1.583-1.971c-0.707-0.488-1.583-0.724-2.627-0.724s-1.937 0.236-2.678 0.724c-0.724 0.472-1.28 1.112-1.667 1.903-0.404 0.792-0.589 1.667-0.589 2.594v1.785c0 1.229 0.219 2.274 0.657 3.133 0.455 0.859 1.061 1.499 1.853 1.954 0.808 0.455 1.735 0.674 2.779 0.674 0.691 0 1.314-0.101 1.869-0.286 0.556-0.202 1.044-0.488 1.465-0.876 0.404-0.371 0.724-0.859 0.926-1.415l3.436 0.623c-0.286 0.96-0.775 1.802-1.465 2.526-0.707 0.724-1.583 1.297-2.644 1.701s-2.257 0.606-3.621 0.606z"></path>
<path fill="#FAFAFA" style="fill: var(--color1, #FAFAFA)" d="M2.863 7.006h3.419v19.368c0.017 1.213-0.202 2.24-0.623 3.082-0.438 0.825-1.078 1.465-1.903 1.886-0.825 0.438-1.853 0.657-3.065 0.657h-0.691v-3.048h0.539c0.825 0 1.415-0.219 1.785-0.674 0.354-0.438 0.539-1.078 0.539-1.92v-19.352zM4.564 4.211c-0.606 0-1.112-0.219-1.533-0.623s-0.64-0.909-0.64-1.482c0-0.589 0.219-1.078 0.64-1.499 0.421-0.404 0.926-0.606 1.533-0.606 0.589 0 1.095 0.202 1.516 0.606 0.438 0.421 0.657 0.909 0.657 1.499 0 0.573-0.219 1.078-0.657 1.482-0.421 0.404-0.926 0.623-1.516 0.623z"></path>
</symbol>
<symbol id="icon-close-btn" viewBox="0 0 32 32">
<path fill="none" stroke="#fafafa" style="stroke: var(--color1, #fafafa)" stroke-linejoin="round" stroke-linecap="round" stroke-miterlimit="4" stroke-width="2.9091" d="M24 8l-16 16"></path>
<path fill="none" stroke="#fafafa" style="stroke: var(--color1, #fafafa)" stroke-linejoin="round" stroke-linecap="round" stroke-miterlimit="4" stroke-width="2.9091" d="M8 8l16 16"></path>
</symbol>
<symbol id="icon-close-dtn-mob-menu" viewBox="0 0 32 32">
<path fill="none" stroke="#fafafa" style="stroke: var(--color1, #fafafa)" stroke-linejoin="round" stroke-linecap="round" stroke-miterlimit="4" stroke-width="2.2857" d="M8 8h16"></path>
</symbol>
<symbol id="icon-mob-menu" viewBox="0 0 32 32">
<path fill="none" stroke="#fafafa" style="stroke: var(--color1, #fafafa)" stroke-linejoin="round" stroke-linecap="butt" stroke-miterlimit="4" stroke-width="2.2857" d="M4 11.326h24M4 20.663h24"></path>
</symbol>
</defs>
</svg>
