<svg width="17.000000" height="14.000000" viewBox="0 0 17 14" fill="none" xmlns="http://www.w3.org/2000/svg" xmlns:xlink="http://www.w3.org/1999/xlink">
	<desc>
			Created with Pixso.
	</desc>
	<defs/>
	<path id="J*" d="M0.72 12.28Q1.8 13.19 3.67 13.19Q5.3 13.19 6.35 12.41Q6.59 12.24 6.79 12.02Q6.93 11.89 7.04 11.74Q7.92 10.62 7.92 8.81L7.92 -0.76L3.05 -0.76L3.05 1L5.73 1L5.73 8.85Q5.73 10.11 5.19 10.77Q5 11 4.77 11.15Q4.32 11.43 3.69 11.43Q3.12 11.43 2.68 11.19Q2.43 11.05 2.22 10.84Q1.65 10.24 1.48 9.13L-0.69 9.47Q-0.35 11.36 0.72 12.28ZM14.32 6.39L15.69 5.53L13.89 3.21L16.53 2.54L16.02 1.04L13.54 2.05L13.68 -0.76L12.09 -0.76L12.23 2.06L9.72 1.02L9.2 2.54L11.84 3.21L9.99 5.51L11.37 6.38L12.87 3.89L14.32 6.39Z" fill="#FAFAFA" fill-opacity="1.000000" fill-rule="evenodd"/>
</svg>
